<svg width="15" height="13" viewBox="0 0 15 13" fill="none" xmlns="http://www.w3.org/2000/svg">
<path d="M11.8781 5.50869C11.886 4.89542 12.0494 4.2941 12.3529 3.7607C12.6565 3.2273 13.0905 2.77914 13.6144 2.45793C13.2816 1.98389 12.8425 1.59378 12.332 1.31857C11.8215 1.04337 11.2537 0.89065 10.6737 0.872553C9.43636 0.743038 8.23686 1.61086 7.60634 1.61086C6.96363 1.61086 5.99287 0.885412 4.94752 0.906856C4.27135 0.928641 3.61238 1.12471 3.0348 1.47597C2.45722 1.82723 1.98074 2.32169 1.65177 2.91118C0.226793 5.37146 1.2897 8.98726 2.65474 10.976C3.3377 11.9498 4.13587 13.0376 5.18029 12.999C6.20231 12.9567 6.58401 12.3491 7.81767 12.3491C9.03988 12.3491 9.39799 12.999 10.4636 12.9745C11.5603 12.9567 12.2512 11.9963 12.9102 11.0133C13.4009 10.3194 13.7785 9.55252 14.029 8.74104C13.3919 8.47231 12.8482 8.02251 12.4657 7.4477C12.0832 6.8729 11.8788 6.19854 11.8781 5.50869Z" fill="#503D3B"/>
</svg>
